<?xml version="1.0" standalone="no"?>
<!DOCTYPE svg PUBLIC "-//W3C//DTD SVG 20010904//EN"
 "http://www.w3.org/TR/2001/REC-SVG-20010904/DTD/svg10.dtd">
<svg version="1.0" xmlns="http://www.w3.org/2000/svg"
 width="500.000000pt" height="500.000000pt" viewBox="0 0 500.000000 500.000000"
 preserveAspectRatio="xMidYMid meet">

<g transform="translate(0.000000,500.000000) scale(0.100000,-0.100000)"
fill="#dc2626" stroke="none">
<path d="M2302 3610 c-175 -166 -253 -252 -389 -430 -104 -137 -113 -168 -60
-197 26 -14 52 -18 135 -16 107 2 182 -16 224 -54 16 -14 15 -18 -10 -56 l-27
-40 100 -94 100 -94 35 43 c118 143 353 411 400 456 66 65 123 105 179 128 45
18 60 15 39 -7 -7 -8 -53 -59 -103 -114 -49 -55 -92 -102 -95 -105 -26 -25
-270 -311 -270 -316 0 -4 16 -24 35 -46 l36 -39 88 83 c49 46 91 89 95 97 3 7
-3 28 -14 46 -11 18 -20 38 -20 44 0 23 121 71 175 70 82 -2 98 -9 125 -64 20
-41 24 -64 24 -136 0 -80 -3 -92 -36 -160 -33 -66 -57 -93 -225 -255 -103 -99
-214 -204 -245 -234 l-58 -53 0 -146 0 -145 370 369 c204 204 382 387 397 408
26 38 27 40 16 113 -14 101 -58 187 -128 253 -30 29 -55 54 -55 55 0 2 21 1
48 -2 85 -9 166 -64 227 -154 37 -55 34 -57 90 48 l38 70 -39 80 c-78 158
-238 281 -419 319 -88 19 -142 19 -230 0 -108 -23 -186 -66 -309 -169 l-47
-39 -42 41 c-24 23 -47 42 -53 42 -5 0 -20 -19 -32 -42 -65 -129 -128 -238
-137 -236 -30 8 -5 155 42 248 45 92 135 183 218 221 108 51 216 58 353 24 28
-7 52 -10 51 -7 -1 10 -382 365 -395 369 -6 2 -96 -78 -202 -177z"/>
<path d="M1818 3306 c-88 -36 -144 -72 -207 -134 -63 -62 -96 -110 -129 -189
l-22 -52 69 -143 c106 -219 151 -282 330 -458 153 -150 344 -330 352 -330 2 0
5 17 6 37 3 51 29 116 58 143 l25 23 0 -141 0 -142 71 -68 c39 -37 75 -68 80
-70 5 -2 9 61 9 140 l0 145 -142 135 c-348 331 -363 347 -392 422 -24 62 -27
82 -25 165 l3 94 -49 13 c-33 8 -59 23 -78 45 -27 29 -29 37 -24 89 7 81 27
117 160 288 16 20 -31 14 -95 -12z"/>
<path d="M1441 2710 c-2 -311 80 -541 264 -739 51 -56 83 -87 430 -416 105
-99 226 -215 271 -257 44 -43 87 -78 95 -78 8 0 51 35 95 78 200 190 574 544
628 593 228 211 337 471 335 806 l0 148 -18 -55 c-55 -171 -111 -241 -512
-645 l-358 -360 11 -45 c9 -39 7 -55 -16 -122 -14 -42 -40 -101 -57 -130 -40
-66 -97 -138 -110 -138 -16 0 -100 121 -135 195 -40 83 -55 155 -43 199 8 28
6 34 -23 61 -18 17 -107 97 -198 180 -459 416 -566 548 -635 781 l-24 79 0
-135z"/>
</g>
</svg>
